After being deemed unfit for military service, Steve Rogers volunteers for a top secret research project that turns him into Captain America, a superhero dedicated to defending America's ideals.

SOURCE: Captain.America.The.First.Avenger.720p.Bluray.x264-MHD

SAMPLE INCLUDED:60s/16.1mb


CAST:

Chris Evans.............Captain America / Steve Rogers
Hayley Atwell...........Peggy Carter
Sebastian Stan..........James Buchanan 'Bucky' Barnes
Tommy Lee Jones.........Colonel Chester Phillips
Hugo Weaving............Johann Schmidt / Red Skull
Dominic Cooper..........Howard Stark
Richard Armitage........Heinz Kruger
Stanley Tucci...........Dr. Abraham Erskine
Samuel L. Jackson.......Nick Fury
Toby Jones..............Dr. Arnim Zola
Neal McDonough..........Timothy 'Dum Dum' Dugan
Derek Luke..............Gabe Jones
Kenneth Choi............Jim Morita
JJ Feild................James Montgomery Falsworth
Bruno Ricci.............Jacques Dernier 

General
*******
Format                                   : Matroska
Format version                           : Version 2
File size                                : 1.95 GiB
Duration                                 : 2h 4mn
Overall bit rate                         : 2 249 Kbps
Encoded date                             : UTC 2011-10-14 20:29:34
Writing application                      : mkvmerge v5.0.0 ('Die Wahre Liebe') built on Sep 25 2011 20:33:49
Writing library                          : libebml v1.2.2 + libmatroska v1.3.0

Video
*****
ID                                       : 1
Format                                   : AVC
Format/Info                              : Advanced Video Codec
Format profile                           : Main@L3.0
Format settings, CABAC                   : Yes
Format settings, ReFrames                : 4 frames
Muxing mode                              : Header stripping
Codec ID                                 : V_MPEG4/ISO/AVC
Duration                                 : 2h 4mn
Bit rate                                 : 1 800 Kbps
Width                                    : 720 pixels
Height                                   : 304 pixels
Display aspect ratio                     : 2.35:1
Frame rate mode                          : Variable
Frame rate                               : 23.976 fps
Color space                              : YUV
Chroma subsampling                       : 4:2:0
Bit depth                                : 8 bits
Scan type                                : Progressive
Bits/(Pixel*Frame)                       : 0.343
Stream size                              : 1.52 GiB (78%)
Writing library                          : x264 core 112


Audio
*****
ID                                       : 2
Format                                   : AC-3
Format/Info                              : Audio Coding 3
Mode extension                           : CM (complete main)
Muxing mode                              : Header stripping
Codec ID                                 : A_AC3
Duration                                 : 2h 4mn
Bit rate mode                            : Constant
Bit rate                                 : 448 Kbps
Channel(s)                               : 6 channels
Channel positions                        : Front: L C R, Side: L R, LFE
Sampling rate                            : 48.0 KHz
Bit depth                                : 16 bits
Compression mode                         : Lossy
Stream size                              : 398 MiB (20%)
Language                                 : English


Text(subtitles)
***************
ID                                       : 3
Format                                   : UTF-8 (srt.)
Codec ID                                 : S_TEXT/UTF8
Codec ID/Info                            : UTF-8 Plain Text
Language                                 : ROMANiAN



PLEASE SEED FOR AS LONG AS POSSIBLE!
